<?xml version="1.0" standalone="no"?>
<!DOCTYPE svg PUBLIC "-//W3C//DTD SVG 20010904//EN"
 "http://www.w3.org/TR/2001/REC-SVG-20010904/DTD/svg10.dtd">
<svg version="1.0" xmlns="http://www.w3.org/2000/svg"
 width="16.000000pt" height="16.000000pt" viewBox="0 0 16.000000 16.000000"
 preserveAspectRatio="xMidYMid meet">
<metadata>
Created by potrace 1.11, written by Peter Selinger 2001-2013
</metadata>
<g transform="translate(0.000000,16.000000) scale(0.001449,-0.001449)"
fill="#000000" stroke="none">
<path d="M846 8333 c-1 -1 -83 -5 -182 -7 -274 -8 -348 -12 -385 -25 -38 -12
-66 -51 -76 -103 -3 -18 -8 -1228 -10 -2689 l-5 -2656 40 -44 40 -43 89 -5
c82 -5 9254 -6 9373 -1 80 3 128 17 142 43 6 12 29 72 50 132 47 132 44 122
53 163 4 17 12 32 18 32 6 0 8 3 5 6 -4 3 -2 20 4 37 5 18 11 37 12 42 2 6 6
17 9 25 12 30 168 520 167 522 -1 2 5 21 13 43 9 22 43 128 77 235 34 107 64
202 67 210 4 8 7 17 8 20 1 3 5 13 9 22 4 9 9 22 10 30 5 26 47 164 61 198 13
33 77 233 81 255 1 6 9 33 19 60 9 28 18 55 19 60 3 13 106 336 113 355 3 8 7
20 8 25 3 11 59 187 81 255 17 52 54 178 59 200 2 8 10 35 18 60 18 56 40 147
42 180 4 51 -24 82 -144 162 -94 62 -290 178 -302 178 -5 0 -9 4 -9 8 0 4 -12
13 -27 19 -16 6 -62 31 -103 54 -139 77 -194 106 -445 232 -393 197 -692 328
-1135 494 -36 13 -81 31 -100 39 -20 8 -42 16 -50 17 -8 2 -19 5 -25 8 -8 5
-76 30 -95 34 -7 2 -41 15 -65 25 -11 5 -33 11 -50 15 -16 4 -43 12 -60 19
-16 7 -55 21 -85 30 -30 10 -62 20 -70 23 -8 3 -19 7 -25 9 -5 1 -91 28 -190
59 -168 53 -588 174 -672 194 -21 5 -110 28 -198 51 -88 23 -171 44 -185 46
-14 3 -79 18 -145 34 -66 16 -132 31 -147 34 -15 2 -31 7 -35 9 -5 3 -26 8
-48 11 -22 4 -47 8 -55 11 -8 2 -26 6 -40 9 -14 3 -34 7 -45 9 -11 3 -56 13
-100 22 -44 9 -88 19 -97 21 -41 9 -55 12 -102 18 -27 4 -53 9 -56 11 -4 2
-22 7 -41 10 -19 3 -68 13 -109 21 -41 8 -88 17 -105 20 -16 2 -41 6 -55 9
-14 2 -36 7 -50 10 -14 2 -41 7 -60 10 -19 3 -46 8 -60 10 -14 3 -38 7 -55 10
-61 8 -111 16 -128 21 -10 3 -35 8 -55 11 -98 13 -201 29 -212 33 -3 1 -9 2
-13 1 -5 -1 -47 5 -95 13 -48 8 -109 18 -137 21 -96 13 -110 15 -180 25 -38 5
-87 12 -109 15 -21 2 -55 7 -75 9 -20 3 -58 8 -86 11 -61 7 -114 13 -180 21
-27 3 -66 8 -85 9 -19 2 -55 6 -80 10 -25 3 -70 8 -100 10 -30 3 -75 7 -100
10 -25 3 -70 8 -100 10 -30 3 -73 7 -95 9 -73 9 -169 18 -220 21 -27 2 -81 6
-120 10 -38 3 -95 8 -125 10 -30 2 -55 4 -55 5 0 1 -69 5 -220 14 -38 3 -108
7 -155 10 -195 13 -252 16 -390 22 -80 4 -191 7 -247 8 -57 0 -103 3 -103 6 0
7 -1117 20 -1124 13z m6789 -2307 c155 -9 214 -23 200 -45 -2 -4 -6 -18 -9
-32 -3 -13 -19 -69 -36 -124 -17 -55 -32 -108 -35 -117 -2 -9 -8 -25 -13 -35
-6 -10 -11 -22 -11 -28 -8 -54 14 -51 -309 -51 -163 -1 -338 -4 -388 -8 -93
-6 -286 -50 -359 -82 -22 -10 -45 -19 -52 -20 -7 -1 -43 -19 -80 -39 -37 -21
-80 -44 -95 -52 -16 -8 -28 -19 -28 -24 0 -5 -5 -9 -11 -9 -18 0 -141 -110
-194 -174 -61 -73 -122 -170 -130 -208 -4 -15 -10 -28 -14 -28 -4 0 -15 -30
-24 -67 -44 -174 -42 -342 8 -478 78 -216 266 -370 530 -435 49 -12 103 -23
120 -25 16 -2 50 -7 75 -10 38 -5 212 -16 245 -16 6 0 28 0 50 0 22 0 47 1 55
1 72 1 246 20 320 35 8 2 22 4 31 4 10 1 23 25 38 74 12 39 25 79 28 87 3 8 8
21 10 28 1 6 5 18 6 25 2 6 7 19 10 27 9 23 138 429 142 448 2 9 12 37 21 62
9 25 17 52 19 60 2 8 11 35 20 60 9 25 18 53 20 64 3 10 11 37 19 60 17 47
137 416 141 431 1 6 5 17 8 25 3 8 47 141 97 295 51 154 94 282 96 285 3 2 37
6 77 8 127 7 1762 10 1772 4 10 -6 15 -8 46 -10 36 -4 32 -27 -42 -278 l-33
-112 -72 1 c-39 0 -76 -3 -82 -7 -6 -3 -13 -2 -16 2 -3 5 -26 6 -51 2 -25 -4
-45 -3 -45 2 0 5 -5 6 -11 3 -6 -4 -196 -9 -422 -11 -227 -3 -470 -6 -541 -7
l-130 -3 -14 -34 c-8 -19 -20 -55 -27 -80 -7 -25 -23 -74 -35 -110 -33 -94
-33 -94 -36 -107 -1 -7 -12 -43 -24 -80 -12 -38 -23 -72 -25 -78 -1 -5 -5 -17
-8 -25 -3 -8 -7 -24 -9 -35 -4 -24 -30 -23 597 -29 259 -2 481 -7 494 -12 21
-6 22 -11 17 -48 -4 -23 -27 -104 -52 -182 l-44 -141 -293 -2 c-160 -2 -384
-4 -497 -6 -113 -1 -239 -3 -280 -4 l-75 -1 -25 -67 c-13 -38 -25 -72 -26 -78
-1 -5 -14 -44 -28 -85 -15 -41 -27 -77 -28 -80 -2 -11 -10 -35 -105 -325 -109
-334 -95 -310 -207 -342 -139 -40 -306 -82 -346 -87 -25 -4 -63 -11 -85 -16
-22 -5 -42 -9 -45 -9 -9 0 -103 -11 -140 -17 -73 -10 -636 -13 -680 -3 -85 18
-135 29 -167 34 -53 8 -243 73 -313 106 -80 38 -208 112 -235 136 -11 10 -36
30 -55 44 -105 80 -232 245 -284 369 -36 88 -48 119 -53 143 -1 10 -9 30 -17
45 -11 20 -16 23 -20 12 -14 -38 -158 -477 -161 -490 -2 -8 -8 -27 -14 -42 -6
-16 -8 -28 -5 -28 4 0 2 -6 -4 -12 -5 -7 -28 -74 -51 -148 -23 -74 -46 -137
-50 -140 -5 -3 -95 -5 -200 -5 -105 0 -191 -4 -191 -8 0 -5 -4 -6 -9 -2 -13 7
-139 10 -146 3 -4 -3 -15 -4 -25 -1 -13 4 -25 23 -36 62 -10 31 -18 58 -19 61
-1 3 -4 12 -8 20 -3 8 -20 56 -36 105 -63 187 -129 364 -143 379 -4 6 -8 15
-8 22 0 6 -10 33 -22 60 -12 27 -23 51 -23 54 0 3 -9 23 -19 45 -10 22 -30 65
-43 95 -98 215 -267 531 -364 680 -16 25 -34 56 -41 70 -7 14 -21 34 -30 44
-10 11 -18 26 -18 33 0 8 -7 16 -15 19 -8 4 -15 12 -15 18 0 7 -13 27 -29 45
-25 27 -29 29 -34 14 -23 -78 -290 -862 -297 -875 -6 -10 -10 -23 -10 -29 0
-6 -12 -38 -27 -70 -18 -40 -33 -59 -43 -57 -8 2 -30 32 -48 68 -46 91 -91
156 -151 220 -29 30 -70 74 -92 97 -21 23 -39 49 -39 57 0 8 14 57 31 108 16
51 32 102 34 113 3 11 37 119 76 240 39 121 80 249 91 285 11 36 26 81 33 100
7 19 40 115 72 214 45 138 63 180 78 186 15 5 443 6 512 1 19 -2 68 -59 158
-185 11 -16 25 -33 30 -40 33 -39 234 -341 266 -401 12 -22 25 -42 28 -45 9
-7 91 -147 91 -155 0 -3 16 -30 35 -60 19 -30 32 -55 29 -55 -3 0 3 -12 14
-27 26 -37 178 -350 237 -488 26 -60 51 -114 55 -120 4 -5 13 -27 19 -47 7
-21 16 -38 19 -38 4 0 24 53 44 118 37 113 109 334 198 607 23 72 43 135 45
140 1 6 5 17 8 25 3 8 27 80 53 160 25 80 55 172 66 205 11 33 22 67 23 75 2
8 28 85 57 170 48 141 55 155 78 158 62 8 447 8 462 1 11 -6 15 -17 12 -32 -3
-12 -8 -35 -11 -52 -3 -16 -9 -38 -14 -47 -5 -10 -8 -18 -5 -18 3 0 -4 -26
-15 -57 -11 -32 -21 -66 -24 -78 -2 -11 -16 -60 -30 -110 -14 -49 -28 -101
-31 -114 -5 -22 -3 -23 13 -10 10 8 23 19 29 24 72 65 132 114 224 183 79 60
329 192 362 192 9 0 18 3 20 8 6 14 281 95 366 107 15 2 38 7 52 10 36 8 82
13 190 21 52 4 96 7 97 8 5 4 410 -3 488 -8z m-4810 -10 c17 -3 47 -8 68 -11
142 -20 145 -23 128 -92 -18 -75 -72 -245 -87 -275 -15 -29 -13 -29 -174 -13
-41 4 -86 9 -100 9 -14 1 -30 5 -35 8 -12 7 -292 2 -349 -6 -79 -11 -112 -17
-168 -31 -60 -16 -149 -51 -158 -63 -3 -4 -17 -13 -32 -21 -15 -8 -40 -27 -56
-42 -70 -68 -78 -154 -20 -211 35 -34 93 -78 103 -78 3 0 22 -11 43 -24 33
-21 137 -76 387 -204 39 -20 72 -39 75 -43 3 -3 22 -12 42 -18 21 -7 40 -16
43 -20 2 -5 42 -27 87 -51 102 -52 202 -111 206 -122 2 -4 8 -8 13 -8 20 0
161 -131 206 -193 69 -93 81 -133 81 -251 0 -116 -10 -157 -69 -263 -78 -141
-195 -248 -365 -335 -86 -44 -153 -70 -165 -65 -3 1 -12 -3 -20 -10 -25 -20
-205 -61 -344 -78 -27 -3 -63 -8 -80 -10 -33 -4 -236 -17 -300 -19 -22 -1 -45
2 -52 7 -6 4 -14 3 -18 -3 -3 -6 -9 -9 -13 -6 -4 2 -34 6 -67 10 -99 11 -221
26 -250 33 -11 2 -31 6 -45 8 -39 6 -180 36 -235 49 -5 2 -23 6 -40 10 -54 14
-329 108 -371 128 l-42 19 16 52 c9 29 19 54 22 57 3 3 6 12 8 20 6 27 112
238 127 253 13 14 24 12 92 -15 80 -30 301 -105 338 -113 11 -3 67 -16 125
-31 58 -14 119 -27 136 -28 16 -2 39 -6 50 -9 77 -22 418 -23 525 -2 13 3 38
8 54 11 87 15 215 66 215 85 0 5 5 9 11 9 29 0 99 114 99 161 0 35 -37 102
-78 142 -58 57 -96 87 -109 87 -7 0 -13 5 -13 10 0 6 -4 10 -9 10 -5 0 -42 19
-83 43 -40 24 -111 63 -158 88 -47 24 -86 47 -88 52 -2 4 -11 7 -20 7 -9 0
-28 9 -42 20 -14 11 -32 20 -42 20 -9 0 -18 4 -20 8 -1 5 -52 34 -113 66 -98
53 -218 123 -253 151 -8 5 -49 44 -91 85 -138 133 -182 219 -183 354 -1 237
195 461 502 574 122 45 329 101 395 107 11 1 58 5 105 10 47 4 87 9 89 11 5 5
534 -4 566 -10z"/>
</g>
</svg>
